<?xml version="1.0" encoding="utf-8"?>
<!-- Generator: Adobe Illustrator 21.0.0, SVG Export Plug-In . SVG Version: 6.00 Build 0)  -->
<svg version="1.1" id="Layer_1" xmlns="http://www.w3.org/2000/svg" xmlns:xlink="http://www.w3.org/1999/xlink" x="0px" y="0px"
	 viewBox="0 0 191.8 72.8" style="enable-background:new 0 0 191.8 72.8;" xml:space="preserve">
<style type="text/css">
	.st0{fill:#00CAFF;}
	.st1{display:none;fill:#222220;}
	.st2{font-family:'LaoMN';}
	.st3{font-size:37.2277px;}
</style>
<title>logo</title>
<polygon class="st0" points="131.8,34.4 0,34.4 0.1,0 131.9,0 "/>
<path class="st1" d="M19.9,18.1c-0.3,0-0.6,0-0.9-0.1c-0.4-0.1-0.7-0.2-1.1-0.3c-3.5-0.7-5.2-1.6-5.2-2.7c0-0.7,0.3-1.4,0.9-1.8
	c0.9-0.5,2-0.7,3-0.6c1.2-0.1,2.3,0.3,3.3,0.9l0.8,0.8c0.6,1.1,1.7,1.7,2.9,1.7H28c-0.1-2.5-1.2-4.9-3.1-6.5
	c-2.4-1.6-5.4-2.5-8.3-2.3c-2.8-0.1-5.5,0.7-7.8,2.3c-1.9,1.6-2.9,3.9-2.9,6.3c-0.1,1.8,0.7,3.6,2,4.8c1.2,1.2,3.6,2.2,7.1,3.1
	c0.9,0.3,1.8,0.5,2.7,0.6c2.8,0.6,4.2,1.5,4.2,2.7c0,0.8-0.5,1.5-1.2,1.9c-1,0.5-2,0.7-3.1,0.7c-1.4,0.1-2.8-0.3-4-1
	c-1-0.7-1.5-1.8-1.5-3H5.3v0.3c-0.2,2.6,0.9,5.1,2.9,6.7c1.9,1.5,4.7,2.3,8.5,2.3c4,0,7-0.7,9-2.2c2.1-1.6,3.3-4.1,3.2-6.8
	c0.1-1.8-0.6-3.6-1.9-4.8C25.7,20,23.3,19,19.9,18.1z M47.3,17.4v17h6.9v-17c-0.1-1.3,0.4-2.6,1.5-3.5c1.9-1.5,4.6-1.5,6.5,0
	c1,0.9,1.6,2.2,1.5,3.5V31c-0.1,1.8,1.3,3.3,3.1,3.4c0.1,0,0.2,0,0.3,0h3.5V18.8c0-4.7-1.2-7.8-3.7-9.3c-2.4-1.5-5.2-2.3-8.1-2.3
	c-1.4,0.1-2.9,0.3-4.2,0.6c-1.3,0.3-2.5,1-3.6,1.8c-1.2-1-2.5-1.7-4-2c-1.5-0.3-3-0.5-4.5-0.5c-2.8,0.1-5.5,1-7.9,2.5
	c-2.4,1.5-3.5,4.6-3.6,9.1v15.6h7v-17c-0.1-1.3,0.4-2.6,1.4-3.5c0.9-0.7,2-1.1,3.2-1.1c1.2,0,2.3,0.4,3.3,1.1
	C46.9,14.8,47.4,16.1,47.3,17.4L47.3,17.4z M84.3,17.7c-0.5,0.1-1.1,0.1-1.6,0.2c-0.4,0.1-0.8,0.1-1.2,0.1c-2.2,0.3-4.4,1.1-6.2,2.4
	c-1.6,1.2-2.5,3.2-2.5,6c0,3,0.9,5.2,2.7,6.5c1.8,1.3,4,2,6.3,2c1.4,0,2.8-0.1,4.1-0.2c1.6-0.2,3.1-0.6,4.5-1.4
	c1.4-0.7,2.6-1.9,3.5-3.2c1.1-1.9,1.6-4.1,1.5-6.2v-9.1c0.1-2.2-1-4.4-2.9-5.6c-1.9-1.3-4.7-1.9-8.4-1.9c-3.3,0-5.9,0.8-7.7,2.3
	c-1.6,1.3-2.6,3.1-2.8,5.1h6.7c0.3-0.7,0.9-1.2,1.6-1.5c0.8-0.3,1.6-0.4,2.5-0.4c1,0,1.9,0.2,2.9,0.5c0.9,0.2,1.6,1,1.5,2
	C88.7,16.4,87.3,17.3,84.3,17.7L84.3,17.7z M88.8,21v2.5c0.3,3.1-2,5.7-5.1,6c-0.3,0-0.6,0-0.9,0c-0.9,0.1-1.9-0.2-2.6-0.8
	c-0.6-0.6-0.9-1.5-0.9-2.4c0-0.8,0.3-1.5,0.7-2.2c0.7-0.6,1.6-1.1,2.6-1.3l2.3-0.5C86.3,22,87.6,21.6,88.8,21L88.8,21z M110.6,14.9
	h2.3V7.8h-1c-1.8,0-3.5,0.2-5.2,0.7c-1.6,0.4-3.1,1.2-4.5,2.2c-1.4,1.1-2.5,2.6-3.1,4.2c-0.8,2.1-1.2,4.3-1.1,6.5v12.9h7V20.7
	c-0.1-1.6,0.4-3.2,1.4-4.4C107.5,15.3,109.1,14.8,110.6,14.9L110.6,14.9z M119.3,34.3c2.4,0.2,4.8,0.2,7.1,0.1v-5.2h-2.1
	c-1.3,0-2-0.6-2-1.7V12.7h0.7c0.9,0,1.8-0.4,2.4-1c0.7-0.6,1-1.5,1-2.5V7.9h-4.1V3.4c0-0.9-0.4-1.8-1-2.4c-0.6-0.6-1.4-1-2.3-1h-3.6
	v29.4C115.5,32.5,116.8,34.1,119.3,34.3L119.3,34.3z M48.5,45.9c-2.4-0.8-4.9-1-7.4-0.6c-2.6,0.3-5,1.6-6.7,3.6
	c-1.1,1.3-1.9,2.8-2.4,4.5c-0.5,1.8-0.7,3.6-0.8,5.4c0,2.1,0.3,4.3,0.9,6.4c0.5,1.9,1.5,3.6,3,4.9c1.5,1.3,3.4,2.2,5.4,2.5
	c2.2,0.5,4.5,0.4,6.7-0.2c2.5-0.5,4.7-2,6.1-4.1c0.8-1.2,1.4-2.5,1.8-3.9c0.5-1.8,0.7-3.6,0.7-5.5c0.1-2.7-0.5-5.3-1.7-7.7
	C53,48.7,50.9,46.9,48.5,45.9z M47.7,64.7c-0.6,1.1-1.6,1.9-2.8,2.2c-1,0.3-2.1,0.3-3.1-0.1c-0.8-0.2-1.5-0.7-2.1-1.4
	c-1-1.2-1.6-3.3-1.7-6.4s0.5-5.3,1.9-6.9c0.6-0.6,1.4-0.9,2.2-1.1c1-0.3,2-0.3,3,0c1.1,0.4,2.1,1.2,2.6,2.3c0.9,1.7,1.3,3.5,1.1,5.4
	C48.9,61.6,48.5,63.5,47.7,64.7L47.7,64.7z M20.7,56c-0.3,0-0.6,0-0.9-0.1c-0.3-0.1-0.6-0.2-1.1-0.3c-3.5-0.7-5.2-1.6-5.2-2.7
	c0-0.7,0.3-1.4,0.9-1.8c0.9-0.5,2-0.7,3-0.6c1.2-0.1,2.3,0.3,3.3,0.9l0.8,0.8c0.6,1.1,1.7,1.7,2.9,1.7h4.3c-0.1-2.5-1.2-4.9-3.1-6.5
	c-2.4-1.6-5.4-2.4-8.3-2.3c-2.8-0.1-5.5,0.7-7.8,2.3c-1.9,1.6-2.9,3.9-2.9,6.3c-0.1,1.8,0.7,3.6,2,4.8c1.2,1.2,3.6,2.2,7.1,3.1
	c0.9,0.3,1.8,0.5,2.7,0.6c2.8,0.6,4.2,1.5,4.2,2.7c0,0.8-0.5,1.5-1.2,1.9c-1,0.5-2,0.7-3.1,0.7c-1.4,0.1-2.8-0.3-4-1
	c-1-0.7-1.5-1.8-1.5-3H6.1v0.3C6,66.4,7,68.9,9,70.5c1.9,1.5,4.7,2.3,8.5,2.3c4,0,7-0.7,9-2.2c2.1-1.6,3.3-4.1,3.2-6.8
	c0.1-1.8-0.6-3.6-1.9-4.8C26.5,57.9,24.1,56.9,20.7,56L20.7,56z M61.5,37.9h-3.6v34.4h7V41.2c0-0.9-0.3-1.7-1-2.4
	C63.2,38.3,62.4,37.9,61.5,37.9L61.5,37.9z M189.9,59c-1.3-1.1-3.7-2.1-7.1-3c-0.3,0-0.6,0-0.9-0.1c-0.3-0.1-0.7-0.2-1-0.3
	c-3.5-0.7-5.2-1.6-5.2-2.7c0-0.7,0.3-1.4,0.9-1.8c0.9-0.5,2-0.7,3-0.6c1.2-0.1,2.3,0.3,3.3,0.9l0.8,0.8c0.6,1.1,1.7,1.7,2.9,1.7h4.3
	c-0.1-2.5-1.2-4.9-3.1-6.5c-2.4-1.6-5.4-2.5-8.3-2.3c-2.8-0.1-5.5,0.7-7.8,2.3c-1.9,1.6-2.9,3.9-2.9,6.3c-0.1,1.8,0.7,3.6,2,4.8
	c1.2,1.2,3.6,2.2,7.1,3.1c0.9,0.3,1.8,0.5,2.7,0.6c2.8,0.6,4.2,1.5,4.2,2.7c0,0.8-0.5,1.5-1.2,1.9c-1,0.5-2,0.7-3.1,0.7
	c-1.4,0.1-2.8-0.3-4-1c-1-0.7-1.5-1.8-1.5-3h-6.8v0.3c-0.2,2.6,0.9,5.1,2.9,6.7c1.9,1.5,4.7,2.3,8.5,2.3c4,0,7-0.7,9-2.2
	c2.1-1.6,3.3-4.1,3.2-6.8C191.9,62,191.2,60.3,189.9,59L189.9,59z M133.5,45.9c-2.4-0.8-4.9-1-7.4-0.6c-2.6,0.3-5,1.6-6.7,3.6
	c-1.1,1.3-1.9,2.8-2.4,4.5c-0.5,1.8-0.7,3.6-0.8,5.4c0,2.1,0.3,4.3,0.9,6.4c0.5,1.9,1.5,3.6,3,4.9c1.5,1.3,3.4,2.2,5.4,2.5
	c2.2,0.5,4.5,0.4,6.6-0.2c2.5-0.5,4.7-2,6.1-4.1c0.8-1.2,1.4-2.5,1.8-3.9c0.5-1.8,0.7-3.6,0.7-5.5c0.1-2.7-0.5-5.3-1.7-7.7
	C138,48.8,136,46.9,133.5,45.9L133.5,45.9z M132.7,64.7c-0.6,1.1-1.6,1.9-2.8,2.2c-1,0.3-2,0.3-3-0.1c-0.8-0.2-1.5-0.7-2.1-1.4
	c-1-1.2-1.6-3.3-1.7-6.4s0.5-5.3,1.9-6.9c0.6-0.6,1.4-0.9,2.2-1.1c1-0.3,2-0.3,3,0c1.1,0.4,2.1,1.2,2.6,2.3c0.9,1.7,1.3,3.5,1.1,5.4
	C134,61.6,133.5,63.5,132.7,64.7L132.7,64.7z M162.7,47.4c-2.4-1.5-5.2-2.3-8.1-2.3c-2.8,0.1-5.5,1-7.9,2.5
	c-2.4,1.5-3.6,4.6-3.5,9.1v15.6h7v-17c-0.1-1.3,0.4-2.6,1.4-3.5c0.9-0.7,2-1.1,3.2-1.1c1.2,0,2.3,0.4,3.2,1.1c1,0.9,1.6,2.2,1.5,3.5
	v13.6c-0.1,1.8,1.3,3.3,3.1,3.4c0.1,0,0.2,0,0.3,0h3.5V56.7C166.4,52.1,165.2,49,162.7,47.4L162.7,47.4z M110.5,37.9h-3.6v5.5h7
	v-2.1C113.9,39.5,112.4,38,110.5,37.9L110.5,37.9z M110.5,45.7h-3.6v26.6h7V49.1C113.9,47.3,112.4,45.8,110.5,45.7L110.5,45.7z
	 M84.8,46.7c-0.6,0.6-1,1.5-1,2.4v13.6c0.1,1.3-0.4,2.6-1.5,3.5c-0.9,0.7-2,1.1-3.2,1.1c-1.2,0-2.3-0.4-3.2-1.1
	c-1-0.9-1.5-2.2-1.4-3.5v-17h-7v15.6c0,4.6,1.2,7.6,3.5,9.1c2.4,1.5,5.1,2.3,7.9,2.4c2.9,0,5.7-0.7,8.1-2.2c2.5-1.5,3.7-4.6,3.7-9.3
	V45.7h-3.5C86.4,45.7,85.5,46.1,84.8,46.7L84.8,46.7z M100.6,41.3c0-0.9-0.4-1.8-1-2.4c-0.6-0.6-1.4-1-2.3-1h-3.6v29.4
	c0,3.1,1.3,4.7,3.9,4.9c2.4,0.2,4.8,0.2,7.1,0.1v-5.2h-2.1c-1.3,0-2-0.6-2-1.7V50.6h0.7c0.9,0,1.8-0.3,2.4-1c0.7-0.6,1-1.5,1-2.5
	v-1.4h-4.1V41.3L100.6,41.3z"/>
<text transform="matrix(1.3041 0 0 1 -3.334 30.3203)"><tspan x="0" y="0" class="st2 st3"> CITY</tspan><tspan x="0" y="38.7" class="st2 st3">     STAFF</tspan></text>
</svg>
