<svg id="Layer_1" data-name="Layer 1" xmlns="http://www.w3.org/2000/svg" xmlns:xlink="http://www.w3.org/1999/xlink" viewBox="0 0 254.22 161.31" preserveAspectRatio="xMinYMid"><defs><style>.cls-1{fill:#000002;}.cls-2{fill:url(#linear-gradient);}.cls-3{fill:#fff;}</style><linearGradient id="linear-gradient" x1="536.18" y1="222.39" x2="536.18" y2="61.08" gradientUnits="userSpaceOnUse"><stop offset="0" stop-color="#ca4c1d"/><stop offset="1" stop-color="#f3cf32"/></linearGradient></defs><title>logo-UXhot</title><path class="cls-1" d="M644.88,193a2.57,2.57,0,0,1-1.34.22h-7.73a2.11,2.11,0,0,1-1.19-.26,1.25,1.25,0,0,1-.37-1.08V171.09a17.27,17.27,0,0,0-.33-3.53,6.63,6.63,0,0,0-1.19-2.71,5.76,5.76,0,0,0-2.27-1.75,8.76,8.76,0,0,0-3.57-.63,28.23,28.23,0,0,0-3.34.22,14.5,14.5,0,0,0-3.27.74V191.9A1.57,1.57,0,0,1,620,193a2.34,2.34,0,0,1-1.3.22h-7.66a2.11,2.11,0,0,1-1.19-.26,1.25,1.25,0,0,1-.37-1.08V140.32a1.28,1.28,0,0,1,1.49-1.41h7.73a1.86,1.86,0,0,1,1.3.3,1.75,1.75,0,0,1,.26,1.12v14a25.38,25.38,0,0,1,4.42-.89,37,37,0,0,1,4.27-.3q8.1,0,12.15,4.31t4.05,12.19V191.9A1.43,1.43,0,0,1,644.88,193Z" transform="translate(-470.4 -61.08)"/><path class="cls-1" d="M690.81,173.54q0,9.81-4.68,15.16t-14.27,5.35q-9.66,0-14.12-5.35t-4.46-15a26.57,26.57,0,0,1,1.3-8.58,17.62,17.62,0,0,1,3.72-6.43,16.31,16.31,0,0,1,5.87-4,20.58,20.58,0,0,1,7.84-1.41q9.36,0,14.08,5.39T690.81,173.54Zm-11.22.22a26.37,26.37,0,0,0-.37-4.61,10.47,10.47,0,0,0-1.26-3.57,6.74,6.74,0,0,0-2.3-2.34,6.63,6.63,0,0,0-3.49-.86,6.41,6.41,0,0,0-5.83,3,15.16,15.16,0,0,0-1.89,8.14q0,5.57,1.75,8.47t5.76,2.9a6.47,6.47,0,0,0,5.91-3.23,10.91,10.91,0,0,0,1.34-3.53A22,22,0,0,0,679.59,173.77Z" transform="translate(-470.4 -61.08)"/><path class="cls-1" d="M724.62,192.18a1,1,0,0,1-.82.63,27.15,27.15,0,0,1-5.5,1q-2.75.22-4.68,0.22-6.39,0-9.14-2.71t-2.75-8V162.17h-5.2a1.09,1.09,0,0,1-1-.41,2.07,2.07,0,0,1-.22-1v-4a1.87,1.87,0,0,1,.19-1,1.94,1.94,0,0,1,1-.48L702,154l0.52-7a1.86,1.86,0,0,1,.48-1.26,3,3,0,0,1,1.23-.6l6.84-2.23a1.29,1.29,0,0,1,1.08.15,1.4,1.4,0,0,1,.41,1.19v10h8.17a1.09,1.09,0,0,1,1,.33,1.93,1.93,0,0,1,.19.93v5.28a2.86,2.86,0,0,1-.15,1.08,1.09,1.09,0,0,1-1,.33h-8.17v18.94a3.54,3.54,0,0,0,1.08,3,5.3,5.3,0,0,0,3.23.82c0.35,0,.77,0,1.26-0.07l1.52-.15,1.52-.15,1.26-.15q1.19-.22,1.26.74l0.89,6.19A6.28,6.28,0,0,1,724.62,192.18Z" transform="translate(-470.4 -61.08)"/><path class="cls-2" d="M595.11,124.77c-8.34-18-21.14-31.34-25.56-34.55,3.67,8,4.37,21.62-3.05,28.22-12.55-47.6-43.59-57.35-43.59-57.35,3.67,24.55-13.3,51.39-29.67,71.44-0.57-9.78-1.19-16.54-6.33-25.91a52.4,52.4,0,0,1-4.74,17.55c-3.23,7.36-7.71,13.73-9.81,21.58a57,57,0,0,0-1.12,24.47c3.07,17.49,15.18,33.53,30.25,42.65a65.84,65.84,0,0,0,28.34,9.27q2.61,0.23,5.23.26a67.75,67.75,0,0,0,60-97.49Z" transform="translate(-470.4 -61.08)"/><path class="cls-3" d="M530.79,184.88a9,9,0,0,1-1,4.28,5.94,5.94,0,0,1-3.91,2.72,20.07,20.07,0,0,1-3.57.67q-2.08.22-4.09,0.33t-3.76.15l-2.57,0a55.36,55.36,0,0,1-11.35-1,17.74,17.74,0,0,1-7.78-3.54,14.77,14.77,0,0,1-4.5-6.74,32.93,32.93,0,0,1-1.45-10.61V141.56a1.45,1.45,0,0,1,1.71-1.56h10.57a2.14,2.14,0,0,1,1.53.33,2.1,2.1,0,0,1,.26,1.23v31q0,4.39,2.08,6.33t7.22,1.93h1.26q0.89,0,1.9-.07t2-.11a7.89,7.89,0,0,0,1.56-.19V141.56a1.45,1.45,0,0,1,1.71-1.56h10.49a2.14,2.14,0,0,1,1.53.33,2.09,2.09,0,0,1,.26,1.23Z" transform="translate(-470.4 -61.08)"/><path class="cls-3" d="M560.78,176.32l-7.22,13.55a5.25,5.25,0,0,1-1.56,1.79,4.82,4.82,0,0,1-2.38.45H537.86a0.93,0.93,0,0,1-.93-0.6,1.21,1.21,0,0,1,.11-1.19l15.78-25.53-14.07-23.07a1.27,1.27,0,0,1-.26-1.19,1.11,1.11,0,0,1,1.23-.6h10.79a6.11,6.11,0,0,1,2.57.37,3.79,3.79,0,0,1,1.38,1.64l6.33,11.91L567,141.94a3.78,3.78,0,0,1,1.38-1.64,6.1,6.1,0,0,1,2.57-.37h10.79a1.11,1.11,0,0,1,1.23.6,1.28,1.28,0,0,1-.26,1.19l-14.07,23.07,15.78,25.53a1.22,1.22,0,0,1,.11,1.19,0.94,0.94,0,0,1-.93.6H571.87a4.81,4.81,0,0,1-2.38-.45,5.23,5.23,0,0,1-1.56-1.79Z" transform="translate(-470.4 -61.08)"/></svg>