<svg id="Layer_1" data-name="Layer 1" xmlns="http://www.w3.org/2000/svg" xmlns:xlink="http://www.w3.org/1999/xlink" viewBox="0 0 246.62 115.38" preserveAspectRatio="xMinyMid"><defs><style>.cls-1{fill:none;}.cls-2{clip-path:url(#clip-path);}.cls-3{fill:#1d1d1b;}.cls-4{fill:#62c2cc;}</style><clipPath id="clip-path" transform="translate(0 0)"><rect class="cls-1" width="246.62" height="115.38"/></clipPath></defs><title>logo</title><g class="cls-2"><path class="cls-3" d="M9.92,111q0,4.42-4.42,4.42H1V81.48c.47-10.59,6-15.81,16.62-15.81q16.48,0,16.48,17.89c0,12.06-4.69,18.29-14.14,18.63a11.06,11.06,0,0,1-10-5.49Zm7.57-16.75c4.82,0,7.3-3.42,7.5-10.25,0-7.17-2.55-10.72-7.64-10.72S9.85,76.79,9.92,84c.27,6.83,2.75,10.25,7.57,10.25" transform="translate(0 0)"/><path class="cls-3" d="M52.06,73.5c-5.29,0-7.57,4.42-7.57,9.85v18.16H35.58V56h4.49c2.95,0,4.42,1.54,4.42,4.49V71C49,65.8,54.6,64.33,61.24,66.67q7.44,2.72,7,14.27v20.57H59.43V83.35c0-6-2.28-9.85-7.37-9.85" transform="translate(0 0)"/><path class="cls-3" d="M79.33,75.31H70.42c1.07-6.57,5.69-9.78,13.87-9.78,9.78,0,14.74,3.22,14.94,9.78V87.37c0,9.78-5.9,14.14-15.48,14.81-8.51.67-14.4-3.28-14.4-11.12.2-8.51,6.37-10.79,15.34-11.66,3.82-.47,5.76-1.61,5.76-3.55-.2-2-2.08-3-5.76-3-3.15,0-4.89.8-5.36,2.48M90.58,87V83.69a38.52,38.52,0,0,1-7.1,2.14c-3.55.67-5.36,2.35-5.36,5,.2,2.82,1.68,4.16,4.49,4.16,5,0,8-2.95,8-8" transform="translate(0 0)"/><path class="cls-3" d="M100.83,83.22c.27-11.46,6.36-17.15,18.22-17.15h1.27v9.25h-3c-5,0-7.44,2.61-7.44,7.77v18.43h-9Z" transform="translate(0 0)"/><path class="cls-3" d="M130.85,78.86v22.65h-9V80.67c0-10.12,5.09-15.14,15.21-15.14,4.56,0,8,1,10.59,3,2.55-1.94,6-2.88,10.59-2.88,10.12,0,15.14,5,15.07,15.14v20.84h-4.62c-2.95-.2-4.42-1.61-4.42-4.42V79c-.2-3.69-2.21-5.49-6.16-5.49s-6,1.81-6,5.49v22.51h-9V78.86c-.2-3.68-2.21-5.49-6.17-5.49s-6,1.81-6,5.49" transform="translate(0 0)"/><path class="cls-3" d="M184.92,75.31H176c1.07-6.57,5.7-9.78,13.87-9.78,9.78,0,14.74,3.22,14.94,9.78V87.37c0,9.78-5.9,14.14-15.48,14.81-8.51.67-14.4-3.28-14.4-11.12.2-8.51,6.37-10.79,15.34-11.66,3.82-.47,5.76-1.61,5.76-3.55-.2-2-2.08-3-5.76-3-3.15,0-4.89.8-5.36,2.48M196.17,87V83.69a38.52,38.52,0,0,1-7.1,2.14c-3.55.67-5.36,2.35-5.36,5,.2,2.82,1.68,4.16,4.49,4.16,5,0,8-2.95,8-8" transform="translate(0 0)"/><path class="cls-3" d="M16.48,39.13c3.75,0,5.63-1.07,5.63-3.35,0-1.81-3.08-3.28-9.18-4.35C5.09,30,1.07,26.53,1,21,1,13.33,7,9.72,15.14,9.58q6.83,0,10.85,3a11.26,11.26,0,0,1,4.22,8.64H24.59c-2.08-.07-3.42-.8-4-2.21s-2.41-2.41-5.36-2.41c-3.48,0-5.23.94-5.23,2.75s2.28,3.22,6.9,4.09c6,1.21,10,2.75,11.93,4.56a8.81,8.81,0,0,1,2.48,6.3c0,8.71-6.83,11.93-16.21,11.93-5,0-8.71-1.07-11.12-3.15-2.68-2-4-5.09-4-9.18H9.11c.2,3.89,3,5.23,7.37,5.23" transform="translate(0 0)"/><path class="cls-3" d="M41.61,22.91V45.56h-9V24.72c0-10.12,5.09-15.14,15.21-15.14,4.56,0,8,1,10.59,3,2.55-1.94,6-2.88,10.59-2.88,10.12,0,15.14,5,15.08,15.14V45.69H79.4c-2.95-.2-4.42-1.61-4.42-4.42V23c-.2-3.68-2.21-5.49-6.17-5.49s-6,1.81-6,5.49V45.56h-9V22.91c-.2-3.68-2.21-5.49-6.16-5.49s-6,1.81-6,5.49" transform="translate(0 0)"/><path class="cls-3" d="M95.67,19.36H86.76c1.07-6.57,5.69-9.78,13.87-9.78,9.78,0,14.74,3.21,14.94,9.78V31.42c0,9.78-5.9,14.14-15.48,14.81-8.51.67-14.4-3.28-14.4-11.12.2-8.51,6.37-10.79,15.34-11.66,3.82-.47,5.76-1.61,5.76-3.55-.2-2-2.08-3-5.76-3-3.15,0-4.89.8-5.36,2.48M106.93,31V27.74a38.52,38.52,0,0,1-7.1,2.14c-3.55.67-5.36,2.35-5.36,5C94.67,37.65,96.14,39,99,39c5,0,8-2.95,8-8" transform="translate(0 0)"/><path class="cls-3" d="M117.18,27.27c.27-11.46,6.36-17.15,18.22-17.15h1.27v9.25h-3c-5,0-7.44,2.61-7.44,7.77V45.56h-9Z" transform="translate(0 0)"/><path class="cls-3" d="M148.67,16.48h-.94V36.11c0,1.47.87,2.28,2.61,2.28h2.75v6.77a49,49,0,0,1-9.38-.07c-3.35-.33-5-2.41-4.89-6.36V0h4.62a4.5,4.5,0,0,1,4.29,4.49v5.63h5.36v1.94a4.34,4.34,0,0,1-4.42,4.42" transform="translate(0 0)"/><path class="cls-4" d="M239.87,98.12a18.36,18.36,0,0,0-20-30.56Z" transform="translate(0 0)"/><path class="cls-4" d="M216.65,69.67a18.36,18.36,0,0,0,20,30.57Z" transform="translate(0 0)"/></g></svg>