<svg xmlns="http://www.w3.org/2000/svg" viewBox="0 0 441.18 198.16"><defs><style>.cls-1{fill:#333;}.cls-2{fill:#ffcf00;}</style></defs><title>Ресурс 1</title><g id="Слой_2" data-name="Слой 2"><g id="Layer_1" data-name="Layer 1"><path class="cls-1" d="M342.4,198.16a29.89,29.89,0,0,1-21.14-51L339.4,129H220.15a29.9,29.9,0,0,1,0-59.8H339.4L321.25,51A29.9,29.9,0,0,1,363.54,8.74l68.88,68.88a30.67,30.67,0,0,1,0,42.91l-68.88,68.88A29.7,29.7,0,0,1,342.4,198.16Z"/><path class="cls-2" d="M220.15,81.18a17.9,17.9,0,0,0,0,35.8H353.89a6,6,0,0,1,4.25,10.24l-28.39,28.39a17.9,17.9,0,0,0,25.32,25.31L423.94,112a17.77,17.77,0,0,0,5.24-12.89V99a17.76,17.76,0,0,0-5.24-12.87L355.06,17.23a17.9,17.9,0,0,0-25.32,25.32l28.39,28.39a6,6,0,0,1-4.25,10.24Z"/><path class="cls-1" d="M382.62,72.44a6,6,0,0,1-4.24-1.76L339.32,31.62a6,6,0,1,1,8.48-8.49L386.87,62.2a6,6,0,0,1-4.24,10.25Z"/><path class="cls-1" d="M406.5,96.31a6,6,0,0,1-4.24-1.75l-7-7a6,6,0,0,1,8.49-8.49l7,7a6,6,0,0,1-4.24,10.24Z"/><path class="cls-2" d="M106.62,122.92a23.87,23.87,0,1,1,0-47.75h37.75a23.87,23.87,0,1,1,0,47.75Z"/><path class="cls-1" d="M144.37,81.18a17.87,17.87,0,0,1,0,35.75H106.62a17.87,17.87,0,0,1,0-35.75h37.75m0-12H106.62a29.87,29.87,0,0,0,0,59.75h37.75a29.87,29.87,0,0,0,0-59.75Z"/><path class="cls-2" d="M29.87,122.92A23.87,23.87,0,1,1,53.75,99,23.9,23.9,0,0,1,29.87,122.92Z"/><path class="cls-1" d="M29.87,81.18A17.87,17.87,0,1,1,12,99,17.89,17.89,0,0,1,29.87,81.18m0-12A29.87,29.87,0,1,0,59.75,99,29.87,29.87,0,0,0,29.87,69.18Z"/></g></g></svg>