<svg id="Layer_1" data-name="Layer 1" xmlns="http://www.w3.org/2000/svg" xmlns:xlink="http://www.w3.org/1999/xlink" viewBox="0 0 224.88 233.76"><defs><style>.cls-1{fill:none;}.cls-2{fill:#f2f2f2;}.cls-3{fill:#333;}.cls-4{clip-path:url(#clip-path);}.cls-5{fill:#ffcf00;}</style><clipPath id="clip-path"><rect class="cls-1" width="224.88" height="233.76"/></clipPath></defs><title>why-us-exp</title><ellipse class="cls-2" cx="206.17" cy="67.67" rx="14.17" ry="8.67"/><ellipse class="cls-2" cx="206.83" cy="41.58" rx="14.17" ry="8.67"/><ellipse class="cls-2" cx="112.11" cy="41.58" rx="14.17" ry="8.67"/><ellipse class="cls-2" cx="112.77" cy="15.5" rx="14.17" ry="8.67"/><ellipse class="cls-2" cx="18.42" cy="67.67" rx="14.17" ry="8.67"/><ellipse class="cls-2" cx="19.08" cy="41.58" rx="14.17" ry="8.67"/><ellipse class="cls-2" cx="18.75" cy="172.67" rx="14.17" ry="8.67"/><ellipse class="cls-2" cx="19.42" cy="146.58" rx="14.17" ry="8.67"/><ellipse class="cls-2" cx="112.11" cy="221.33" rx="14.17" ry="8.67"/><ellipse class="cls-2" cx="112.77" cy="195.25" rx="14.17" ry="8.67"/><ellipse class="cls-2" cx="205.83" cy="172.67" rx="14.17" ry="8.67"/><ellipse class="cls-2" cx="206.5" cy="146.58" rx="14.17" ry="8.67"/><path class="cls-3" d="M120.07,28.18a15,15,0,1,0-15.13,0A18.75,18.75,0,0,0,93.75,45.3V49A3.75,3.75,0,0,0,97.5,52.8h11.25V79h7.5V52.8H127.5A3.75,3.75,0,0,0,131.25,49V45.3a18.75,18.75,0,0,0-11.18-17.12ZM112.5,7.8a7.5,7.5,0,1,1-7.5,7.5,7.51,7.51,0,0,1,7.5-7.5ZM101.25,45.3a11.25,11.25,0,0,1,22.5,0Zm0,0"/><g class="cls-4"><path class="cls-3" d="M3.75,79h30A3.75,3.75,0,0,0,37.5,75.3v-.5l39.17,26.12,4.16-6.24L36.23,65a18.79,18.79,0,0,0-9.92-10.52,15,15,0,1,0-15.13,0A18.74,18.74,0,0,0,0,71.55V75.3A3.75,3.75,0,0,0,3.75,79Zm15-45a7.5,7.5,0,1,1-7.5,7.5,7.51,7.51,0,0,1,7.5-7.5Zm0,26.25A11.26,11.26,0,0,1,30,71.55H7.5A11.26,11.26,0,0,1,18.75,60.3Zm0,0"/><path class="cls-3" d="M213.82,54.43a15,15,0,1,0-15.13,0A18.79,18.79,0,0,0,188.76,65L144.17,94.68l4.16,6.24L187.5,74.8v.5A3.75,3.75,0,0,0,191.25,79h30A3.75,3.75,0,0,0,225,75.3V71.55a18.74,18.74,0,0,0-11.18-17.12ZM206.25,34a7.5,7.5,0,1,1-7.5,7.5,7.51,7.51,0,0,1,7.5-7.5ZM195,71.55a11.25,11.25,0,0,1,22.5,0Zm0,0"/><path class="cls-3" d="M213.82,159.43a15,15,0,1,0-15.13,0,18.81,18.81,0,0,0-5.56,3.76l-44.74-31-4.27,6.17,44.81,31a18.65,18.65,0,0,0-1.43,7.14v3.75a3.75,3.75,0,0,0,3.75,3.75h30A3.75,3.75,0,0,0,225,180.3v-3.75a18.74,18.74,0,0,0-11.18-17.12ZM206.25,139a7.5,7.5,0,1,1-7.5,7.5,7.51,7.51,0,0,1,7.5-7.5ZM195,176.55a11.25,11.25,0,0,1,22.5,0Zm0,0"/></g><path class="cls-3" d="M120.07,208.18a14.91,14.91,0,0,0-3.82-27.35V154h-7.5v26.78a14.91,14.91,0,0,0-3.82,27.35A18.75,18.75,0,0,0,93.75,225.3V229a3.75,3.75,0,0,0,3.75,3.75h30a3.75,3.75,0,0,0,3.75-3.75V225.3a18.75,18.75,0,0,0-11.18-17.12ZM112.5,187.8a7.5,7.5,0,1,1-7.5,7.5,7.51,7.51,0,0,1,7.5-7.5Zm-11.25,37.5a11.25,11.25,0,0,1,22.5,0Zm0,0"/><path class="cls-3" d="M76.62,132.22l-44.74,31a18.75,18.75,0,0,0-5.56-3.77,15,15,0,1,0-15.14,0A18.75,18.75,0,0,0,0,176.55v3.75A3.75,3.75,0,0,0,3.75,184h30a3.75,3.75,0,0,0,3.75-3.75v-3.75a18.58,18.58,0,0,0-1.43-7.14l44.82-31ZM18.75,139a7.5,7.5,0,1,1-7.5,7.5,7.51,7.51,0,0,1,7.5-7.5ZM7.5,176.55a11.25,11.25,0,0,1,22.5,0Zm0,0"/><path class="cls-5" d="M112.5,161.3a44.75,44.75,0,1,1,44.75-44.75A44.8,44.8,0,0,1,112.5,161.3Z"/><path class="cls-3" d="M112.5,75.3a41.25,41.25,0,1,1-41.25,41.25A41.3,41.3,0,0,1,112.5,75.3m0-7a48.25,48.25,0,1,0,48.25,48.25A48.3,48.3,0,0,0,112.5,68.3Z"/><path class="cls-3" d="M117.84,157.87a42.11,42.11,0,0,1-23.14-7,39.25,39.25,0,0,1-17.09-25.08,38.29,38.29,0,0,1,5.78-28.66,35.74,35.74,0,0,1,22.95-15.42,34.72,34.72,0,0,1,26,5.43A32.21,32.21,0,0,1,146.06,108a31.14,31.14,0,0,1-5.1,23.3,28.67,28.67,0,0,1-18.7,12.07,27.59,27.59,0,0,1-20.62-4.77A25.16,25.16,0,0,1,91.27,122a24,24,0,0,1,4.45-17.94,21.62,21.62,0,0,1,14.48-8.67,20.42,20.42,0,0,1,15.27,4.16,18.08,18.08,0,0,1,6.95,12.38,16.8,16.8,0,0,1-3.91,12.6,14.5,14.5,0,0,1-10.31,5.18,13.35,13.35,0,0,1-10-3.78,10.9,10.9,0,0,1-3.3-8.3,9.86,9.86,0,0,1,4-7.4,7.25,7.25,0,0,1,6.45-1,3.49,3.49,0,0,1-2.1,6.67c-.1,0-.15-.05-.35.09a2.93,2.93,0,0,0-1,2,3.89,3.89,0,0,0,1.25,3,6.38,6.38,0,0,0,4.67,1.76,7.52,7.52,0,0,0,5.37-2.74,9.91,9.91,0,0,0,2.28-7.34,11.13,11.13,0,0,0-4.31-7.61,13.36,13.36,0,0,0-10-2.73,14.68,14.68,0,0,0-9.81,5.92,17,17,0,0,0-3.15,12.68,18.22,18.22,0,0,0,7.54,12,20.54,20.54,0,0,0,15.36,3.56,21.74,21.74,0,0,0,14.16-9.17,24.12,24.12,0,0,0,4-18A25.27,25.27,0,0,0,128.38,93a27.7,27.7,0,0,0-20.72-4.35,28.79,28.79,0,0,0-18.47,12.45,31.25,31.25,0,0,0-4.73,23.39,32.32,32.32,0,0,0,14.1,20.63,34.82,34.82,0,0,0,26.07,5.11c15.94-3.3,28.16-17.77,29.05-34.4a3.49,3.49,0,1,1,7,.38C159.6,135.92,145,153.11,126,157A40.66,40.66,0,0,1,117.84,157.87Z"/></svg>