<svg id="Layer_1" data-name="Layer 1" xmlns="http://www.w3.org/2000/svg" viewBox="0 0 239.38 235.69"><defs><style>.cls-1{fill:#f2f2f2;}.cls-2{fill:#333;}.cls-3{fill:#ffcf00;}</style></defs><title>why-us-bag</title><rect class="cls-1" x="10.81" y="71.88" width="220.95" height="144.76"/><path class="cls-2" d="M228,64.27H170.81V45.21a11.38,11.38,0,0,0-5.9-9.94,13.17,13.17,0,0,0-5.21-18.92l-7.93-4V3.31h-7.62V17.09l12.14,6.07a5.59,5.59,0,0,1-.71,10.3v-7.3H148v19a3.81,3.81,0,0,1-7.62,0h-7.62a3.81,3.81,0,0,1-7.62,0h-7.62a3.81,3.81,0,0,1-7.62,0h-7.62a3.81,3.81,0,0,1-7.62,0V26.78l3.81-11.43v-12H90.81V14.12L87,25.55v8.24H83.19A11.44,11.44,0,0,0,71.76,45.22v19H14.62A11.44,11.44,0,0,0,3.19,75.69V212.83a11.41,11.41,0,0,0,7.62,10.73v4.51a7.63,7.63,0,0,0,7.62,7.62H33.67a7.63,7.63,0,0,0,7.62-7.62v-3.81h160v3.81a7.63,7.63,0,0,0,7.62,7.62h15.24a7.63,7.63,0,0,0,7.62-7.62v-4.51a11.42,11.42,0,0,0,7.62-10.73V75.69A11.44,11.44,0,0,0,228,64.27Zm-72.38-19V41.41h3.81a3.81,3.81,0,0,1,3.81,3.81V49h-8.32a11.33,11.33,0,0,0,.7-3.81ZM83.19,41.41H87v3.81A11.31,11.31,0,0,0,87.7,49H79.38V45.22a3.81,3.81,0,0,1,3.81-3.81ZM79.38,56.64h19A11.37,11.37,0,0,0,106,53.73a11.41,11.41,0,0,0,15.24,0,11.41,11.41,0,0,0,15.24,0,11.36,11.36,0,0,0,7.62,2.92h19v7.62H79.38ZM33.67,228.07H18.43v-3.81H33.67Zm190.48,0H208.9v-3.81h15.24Zm7.62-15.24a3.81,3.81,0,0,1-3.81,3.81H14.62a3.81,3.81,0,0,1-3.81-3.81V75.69a3.81,3.81,0,0,1,3.81-3.81H228a3.81,3.81,0,0,1,3.81,3.81Zm0,0"/><path class="cls-2" d="M109.23,81.86l-42.71,16,48,26.7ZM84.63,99.22l18.24-6.84,2.28,18.24Zm0,0"/><path class="cls-2" d="M119.83,188.6l15.35,25.58,33.28-19L153.1,169.59Zm18,15.26-7.51-12.51,20.06-11.46,7.51,12.52Zm0,0"/><path class="cls-2" d="M100.33,140.45a17.14,17.14,0,1,0,17.14,17.14,17.16,17.16,0,0,0-17.14-17.14Zm0,26.67a9.52,9.52,0,1,1,9.52-9.52,9.53,9.53,0,0,1-9.52,9.52Zm0,0"/><path class="cls-2" d="M149.86,110a17.14,17.14,0,1,0-17.15-17.14A17.16,17.16,0,0,0,149.86,110Zm0-26.67a9.52,9.52,0,1,1-9.53,9.52,9.53,9.53,0,0,1,9.53-9.52Zm0,0"/><rect class="cls-3" x="41.28" y="64.27" width="22.86" height="160"/><rect class="cls-3" x="178.43" y="64.27" width="22.85" height="160"/><path class="cls-2" d="M68,136.64H37.47a7.63,7.63,0,0,0-7.62,7.62v22.85a7.63,7.63,0,0,0,7.62,7.62H68a7.63,7.63,0,0,0,7.62-7.62V144.27A7.63,7.63,0,0,0,68,136.64ZM37.47,167.12V144.27H68v22.85Zm0,0"/><path class="cls-2" d="M205.1,136.64H174.62a7.63,7.63,0,0,0-7.62,7.62v22.85a7.63,7.63,0,0,0,7.62,7.62H205.1a7.63,7.63,0,0,0,7.62-7.62V144.27a7.63,7.63,0,0,0-7.62-7.62Zm-30.48,30.48V144.27H205.1v22.85Zm0,0"/></svg>