<svg id="Layer_1" data-name="Layer 1" xmlns="http://www.w3.org/2000/svg" viewBox="0 0 185.07 171.86"><defs><style>.cls-1{fill:#ffcf00;}.cls-2{fill:#f2f2f2;}.cls-3{fill:#333;}.cls-10,.cls-4,.cls-5,.cls-6,.cls-7,.cls-8,.cls-9{fill:none;stroke:#333;stroke-linecap:round;stroke-linejoin:round;stroke-width:5px;}.cls-5{stroke-dasharray:2.77 9.25;}.cls-6{stroke-dasharray:3.13 10.44;}.cls-7{stroke-dasharray:2.65 8.82;}.cls-8{stroke-dasharray:2.65 8.82;}.cls-9{stroke-dasharray:2.69 8.97;}.cls-10{stroke-dasharray:2.74 9.13;}</style></defs><title>why-us-deligating</title><circle class="cls-1" cx="91.69" cy="80.61" r="22.66"/><circle class="cls-1" cx="166.73" cy="42.29" r="16.17" transform="translate(78.89 190.18) rotate(-73.52)"/><circle class="cls-2" cx="159.11" cy="114.79" r="9.53" transform="translate(-15.55 25.42) rotate(-8.71)"/><circle class="cls-1" cx="98.94" cy="153.56" r="14.91" transform="translate(-14.68 10.52) rotate(-5.67)"/><circle class="cls-2" cx="21.45" cy="147.81" r="14.91"/><circle class="cls-2" cx="81.84" cy="12.18" r="9.53" transform="translate(23.06 70.42) rotate(-53.2)"/><path class="cls-3" d="M166.72,24v6a12.33,12.33,0,1,1-11.82,8.84A12.35,12.35,0,0,1,166.72,30V24m0,0a18.35,18.35,0,1,0,5.21.76,18.34,18.34,0,0,0-5.21-.76Z"/><path class="cls-3" d="M81.85,6h0a6.18,6.18,0,1,1-3.71,11.13A6.18,6.18,0,0,1,81.85,6m0-6a12.18,12.18,0,1,0,7.29,2.43A12.16,12.16,0,0,0,81.85,0Z"/><path class="cls-3" d="M21.45,135.52a12.3,12.3,0,1,1-12.3,12.3,12.32,12.32,0,0,1,12.3-12.3m0-6a18.3,18.3,0,1,0,18.3,18.3,18.3,18.3,0,0,0-18.3-18.3Z"/><path class="cls-3" d="M99,135.25v6a12.3,12.3,0,0,1,1.19,24.55c-.41,0-.83.06-1.24.06a12.3,12.3,0,0,1-1.19-24.55c.41,0,.83-.06,1.24-.06v-6m0,0c-.6,0-1.22,0-1.83.09a18.3,18.3,0,0,0,1.79,36.52c.6,0,1.22,0,1.83-.09A18.3,18.3,0,0,0,99,135.25Z"/><path class="cls-3" d="M159.13,108.62h0a6.23,6.23,0,0,1,6.11,5.26,6.19,6.19,0,0,1-5.18,7.06,6.31,6.31,0,0,1-1,.07,6.23,6.23,0,0,1-6.11-5.26,6.19,6.19,0,0,1,5.18-7.06,6.32,6.32,0,0,1,1-.07m0-6a12.19,12.19,0,1,0,12,10.35,12.29,12.29,0,0,0-12-10.35Z"/><path class="cls-3" d="M91.69,64.23A16.36,16.36,0,1,1,75.33,80.59,16.38,16.38,0,0,1,91.69,64.23m0-8a24.36,24.36,0,1,0,24.36,24.36A24.36,24.36,0,0,0,91.69,56.23Z"/><line class="cls-3" x1="108.55" y1="71.62" x2="140.48" y2="54.38"/><line class="cls-4" x1="108.55" y1="71.62" x2="109.87" y2="70.91"/><line class="cls-5" x1="118.01" y1="66.52" x2="135.09" y2="57.29"/><line class="cls-4" x1="139.16" y1="55.1" x2="140.48" y2="54.38"/><polygon class="cls-3" points="141.78 60.48 148.06 50.29 136.1 49.95 141.78 60.48"/><line class="cls-3" x1="88.78" y1="61.18" x2="84.99" y2="34.43"/><line class="cls-4" x1="88.78" y1="61.18" x2="88.57" y2="59.69"/><line class="cls-6" x1="87.11" y1="49.35" x2="85.93" y2="41.08"/><line class="cls-4" x1="85.2" y1="35.91" x2="84.99" y2="34.43"/><polygon class="cls-3" points="91.16 35.32 83.78 25.9 79.31 37 91.16 35.32"/><circle class="cls-1" cx="14.69" cy="68.06" r="11.5" transform="translate(-54.48 76.06) rotate(-84.41)"/><path class="cls-3" d="M14.67,59.37h0c.29,0,.58,0,.86,0a8.69,8.69,0,0,1-.83,17.34c-.29,0-.58,0-.86,0a8.69,8.69,0,0,1,.83-17.34m0-6a14.69,14.69,0,0,0-1.41,29.31q.73.07,1.45.07a14.69,14.69,0,0,0,1.41-29.31q-.73-.07-1.45-.07Z"/><line class="cls-3" x1="72.31" y1="78.96" x2="37.84" y2="74.56"/><line class="cls-4" x1="72.31" y1="78.96" x2="70.82" y2="78.77"/><line class="cls-7" x1="62.07" y1="77.65" x2="43.7" y2="75.31"/><line class="cls-4" x1="39.33" y1="74.75" x2="37.84" y2="74.56"/><polygon class="cls-3" points="40.34 68.84 29.3 73.47 38.82 80.71 40.34 68.84"/><line class="cls-3" x1="108.09" y1="90.42" x2="138.91" y2="106.48"/><line class="cls-4" x1="108.09" y1="90.42" x2="109.42" y2="91.11"/><line class="cls-8" x1="117.24" y1="95.18" x2="133.67" y2="103.75"/><line class="cls-4" x1="137.58" y1="105.78" x2="138.91" y2="106.48"/><polygon class="cls-3" points="134.6 110.97 146.55 110.46 140.13 100.36 134.6 110.97"/><line class="cls-3" x1="77.74" y1="94.37" x2="44.39" y2="127.4"/><line class="cls-4" x1="77.74" y1="94.37" x2="76.67" y2="95.43"/><line class="cls-9" x1="70.3" y1="101.74" x2="48.64" y2="123.19"/><line class="cls-4" x1="45.45" y1="126.34" x2="44.39" y2="127.4"/><polygon class="cls-3" points="41.42 121.92 38.27 133.46 49.84 130.42 41.42 121.92"/><line class="cls-3" x1="93.7" y1="100.82" x2="96.07" y2="124.7"/><line class="cls-4" x1="93.7" y1="100.82" x2="93.85" y2="102.31"/><line class="cls-10" x1="94.75" y1="111.39" x2="95.47" y2="118.66"/><line class="cls-4" x1="95.92" y1="123.21" x2="96.07" y2="124.7"/><polygon class="cls-3" points="89.95 123.55 96.92 133.27 101.85 122.37 89.95 123.55"/></svg>