<svg id="Layer_1" data-name="Layer 1" xmlns="http://www.w3.org/2000/svg" viewBox="0 0 185.05 185.05"><defs><style>.cls-1{fill:#333;}.cls-2{fill:#ffcf00;}.cls-3{fill:#f2f2f2;}</style></defs><title>asset</title><path class="cls-1" d="M183.64,54.2,130.85,1.41A4.8,4.8,0,0,0,127.46,0H32.6A32.64,32.64,0,0,0,0,32.6V152.45A32.64,32.64,0,0,0,32.6,185H152.45a32.64,32.64,0,0,0,32.6-32.6V57.59a4.81,4.81,0,0,0-1.41-3.39Z"/><polygon class="cls-2" points="129.46 55.59 129.46 10.76 174.28 55.59 129.46 55.59"/><polygon class="cls-2" points="131.46 15.59 169.46 53.59 131.46 53.59 131.46 15.59"/><path class="cls-3" d="M32.6,177.45a25,25,0,0,1-25-25V32.6a25,25,0,0,1,25-25h91.26V58.39a2.8,2.8,0,0,0,2.8,2.8h50.79v91.26a25,25,0,0,1-25,25Z"/><path class="cls-3" d="M152.44,175.45H32.6a23,23,0,0,1-23-23V32.6a23,23,0,0,1,23-23h89.26V58.39a4.8,4.8,0,0,0,4.8,4.8h48.79v89.26a23,23,0,0,1-23,23Z"/><path class="cls-1" d="M83.06,41.92A24.85,24.85,0,0,0,47.92,77.06l49.23,49.23a16.32,16.32,0,0,0,23.08-23.08L71.49,54.47a4.8,4.8,0,0,0-6.79,6.79L113.44,110a6.72,6.72,0,0,1-9.51,9.51L54.71,70.27A15.25,15.25,0,0,1,76.27,48.71l51.58,51.58a23.73,23.73,0,1,1-33.57,33.56L54.63,94.2A4.8,4.8,0,0,0,47.84,101L87.5,140.64A33.33,33.33,0,1,0,134.64,93.5Zm0,0"/></svg>