<svg id="Layer_1" data-name="Layer 1" xmlns="http://www.w3.org/2000/svg" viewBox="0 0 454.88 316.61"><defs><style>.cls-1{fill:#333;}.cls-2{fill:#fecf09;}</style></defs><title>message-sent</title><path class="cls-1" d="M452.55,48.63,406.37,2.45a8.08,8.08,0,0,0-11.59,0l-201.88,202L60.22,71.81a8.08,8.08,0,0,0-11.59,0L2.45,118a8.08,8.08,0,0,0,0,11.59L187,314.16a8.31,8.31,0,0,0,5.71,2.45,7.67,7.67,0,0,0,5.71-2.45L452.55,60.22a8.38,8.38,0,0,0,0-11.59Z"/><path class="cls-2" d="M192.9,296.86,19.75,123.71l34.6-34.6L187,221.79a8.07,8.07,0,0,0,11.59,0l202-202,34.6,34.6Z"/><path class="cls-1" d="M397.72,37.7,282.34,153.08a4.1,4.1,0,0,0,5.88,5.71L400.66,46.35,409.3,55A4,4,0,1,0,415,49.28L403.43,37.7a3.93,3.93,0,0,0-2.94-1.14,3.58,3.58,0,0,0-2.77,1.14Zm0,0"/></svg>